<svg width="60" height="44" viewBox="0 0 60 44" fill="none" xmlns="http://www.w3.org/2000/svg">
<path d="M25.5556 28.6669C24.6667 28.6669 23.7778 27.8891 23.3333 27.5558C21.1111 26.0002 20.4444 25.4447 20 25.1113V29.778C20 30.3915 20.4976 30.8891 21.1111 30.8891H30C30.6135 30.8891 31.1111 30.3915 31.1111 29.778V25.1113C30.6667 25.4447 30 26.0002 27.7778 27.5558C27.3333 27.8891 26.4444 28.6669 25.5556 28.6669ZM30 22.0002H21.1111C20.4976 22.0002 20 22.4978 20 23.1113V23.6669C20.8889 24.3336 20.7778 24.3336 24 26.6669C24.3333 26.8891 25 27.5558 25.5556 27.5558C26.1111 27.5558 26.7778 26.8891 27.1111 26.778C30.3333 24.4447 30.2222 24.4447 31.1111 23.778V23.1113C31.1111 22.4978 30.6135 22.0002 30 22.0002ZM38.8889 18.6669H27.7778C27.1642 18.6669 26.6667 19.1645 26.6667 19.778V20.8891H30C31.1531 20.8891 32.1038 21.7717 32.2122 22.8967L32.2222 22.8891V27.5558H38.8889C39.5024 27.5558 40 27.0582 40 26.4447V19.778C40 19.1645 39.5024 18.6669 38.8889 18.6669ZM37.7778 23.1113H35.5556V20.8891H37.7778V23.1113ZM25.5556 19.778C25.5556 18.5526 26.5524 17.5558 27.7778 17.5558H35.5556V14.2224C35.5556 13.6089 35.058 13.1113 34.4444 13.1113H23.3333C22.7198 13.1113 22.2222 13.6089 22.2222 14.2224V20.8891H25.5556V19.778Z" fill="#222020"/>
</svg>
