<svg width="60" height="44" viewBox="0 0 60 44" fill="none" xmlns="http://www.w3.org/2000/svg">
<path d="M39.6211 19.4531C39.7734 19.332 40 19.4453 40 19.6367V27.625C40 28.6602 39.1602 29.5 38.125 29.5H21.875C20.8398 29.5 20 28.6602 20 27.625V19.6406C20 19.4453 20.2227 19.3359 20.3789 19.457C21.2539 20.1367 22.4141 21 26.3984 23.8945C27.2227 24.4961 28.6133 25.7617 30 25.7539C31.3945 25.7656 32.8125 24.4727 33.6055 23.8945C37.5898 21 38.7461 20.1328 39.6211 19.4531ZM30 24.5C30.9062 24.5156 32.2109 23.3594 32.8672 22.8828C38.0508 19.1211 38.4453 18.793 39.6406 17.8555C39.8672 17.6797 40 17.4062 40 17.1172V16.375C40 15.3398 39.1602 14.5 38.125 14.5H21.875C20.8398 14.5 20 15.3398 20 16.375V17.1172C20 17.4062 20.1328 17.6758 20.3594 17.8555C21.5547 18.7891 21.9492 19.1211 27.1328 22.8828C27.7891 23.3594 29.0938 24.5156 30 24.5Z" fill="#222020"/>
</svg>
