<svg width="60" height="44" viewBox="0 0 60 44" fill="none" xmlns="http://www.w3.org/2000/svg">
<path d="M39.7232 22.6738L33.0562 29.3408C32.4609 29.9361 31.4291 29.5194 31.4291 28.6662V24.8565H26.032C25.5042 24.8565 25.0796 24.4318 25.0796 23.904V20.0943C25.0796 19.5665 25.5042 19.1419 26.032 19.1419H31.4291V15.3322C31.4291 14.4829 32.457 14.0623 33.0562 14.6575L39.7232 21.3245C40.0923 21.6976 40.0923 22.3008 39.7232 22.6738ZM27.6194 29.1424V27.555C27.6194 27.2931 27.4051 27.0788 27.1432 27.0788H23.8097C23.1073 27.0788 22.5398 26.5113 22.5398 25.8089V18.1895C22.5398 17.487 23.1073 16.9196 23.8097 16.9196H27.1432C27.4051 16.9196 27.6194 16.7053 27.6194 16.4433V14.856C27.6194 14.594 27.4051 14.3798 27.1432 14.3798H23.8097C21.7064 14.3798 20 16.0862 20 18.1895V25.8089C20 27.9122 21.7064 29.6186 23.8097 29.6186H27.1432C27.4051 29.6186 27.6194 29.4043 27.6194 29.1424Z" fill="#222020"/>
</svg>
